/* XPM */
static char * Anmr_icon24_xpm[] = {
"24 24 22 1",
" 	c None",
".	c #000000",
"+	c #FF0000",
"@	c #F50600",
"#	c #008000",
"$	c #7E4000",
"%	c #037E00",
"&	c #0E7800",
"*	c #724700",
"=	c #0A7B00",
"-	c #F80400",
";	c #187400",
">	c #6D4A00",
",	c #2C6900",
"'	c #077C00",
")	c #6A4B00",
"!	c #5D5100",
"~	c #1F7000",
"{	c #FE0100",
"]	c #0C7900",
"^	c #3F6100",
"/	c #A42E00",
"                        ",
" ...................... ",
" .                    . ",
" .                    . ",
" .                    . ",
" . +                  . ",
" . +@##               . ",
" .  $%##              . ",
" .  &* ##             . ",
" .  =-  #       ++    . ",
" . #;+  #      +++>## . ",
" . # +  ##    +  ,')  . ",
" . # ++  #   ++  #!+  . ",
" . #  +  #   +  ## ++ . ",
" .    +   # ++  #     . ",
" .    ++  # +  ##     . ",
" .     +  #~{  #      . ",
" .     ++  ]^ #       . ",
" .      + +/###       . ",
" .      +++           . ",
" .                    . ",
" .                    . ",
" ...................... ",
"                        "};
