/* XPM */
static char * Shim_icon24_xpm[] = {
"24 24 30 1",
" 	c None",
".	c #000000",
"+	c #0000FF",
"@	c #2D00FF",
"#	c #FF00FF",
"$	c #E200FF",
"%	c #1800FF",
"&	c #8E00FF",
"*	c #F800FF",
"=	c #FE00FF",
"-	c #E600FF",
";	c #FB00FF",
">	c #A000FF",
",	c #B800FF",
"'	c #F600FF",
")	c #AC00FF",
"!	c #0200FF",
"~	c #0A00FF",
"{	c #DA00FF",
"]	c #F300FF",
"^	c #1000FF",
"/	c #9D00FF",
"(	c #EC00FF",
"_	c #6F00FF",
":	c #0100FF",
"<	c #0700FF",
"[	c #FD00FF",
"}	c #6500FF",
"|	c #7200FF",
"1	c #9100FF",
"                        ",
" ...................... ",
" .                    . ",
" .         +          . ",
" .         ++         . ",
" .         ++         . ",
" .         ++         . ",
" .         ++         . ",
" .        +++         . ",
" .        +++         . ",
" .        + ++        . ",
" .        + ++        . ",
" .        +  +        . ",
" .        +  +        . ",
" .        @#$%        . ",
" .       &*#=-        . ",
" .       ;>  ,'       . ",
" .      #)!  ~{#      . ",
" .    ##]!    ^=#     . ",
" . /##(_:+    +<&*#[  . ",
" .  &}            |1  . ",
" .                    . ",
" ...................... ",
"                        "};
